<svg id="svg" xmlns="http://www.w3.org/2000/svg" xmlns:xlink="http://www.w3.org/1999/xlink" width="400" height="487.52941176470586" viewBox="0, 0, 400,487.52941176470586"><g id="svgg"><path id="path0" d="M172.529 15.557 C 92.646 37.080,61.914 149.917,111.799 238.534 L 116.007 246.008 114.469 250.298 C 105.626 274.975,133.670 296.270,155.049 281.112 C 175.590 266.549,166.307 234.495,141.176 233.207 L 136.000 232.941 132.021 225.882 C 95.401 160.912,111.515 66.431,162.976 44.371 C 211.575 23.540,253.306 51.079,264.070 111.087 L 265.679 120.057 277.952 124.014 C 292.483 128.698,291.425 129.234,290.089 117.868 C 284.194 67.701,254.218 26.784,215.498 16.055 C 206.857 13.660,180.694 13.357,172.529 15.557 M163.129 120.072 C 134.579 130.605,142.648 172.892,172.874 171.142 C 182.446 170.588,195.765 162.589,195.765 157.395 C 195.765 156.137,197.612 156.022,210.118 156.499 C 263.228 158.525,310.327 181.942,337.369 219.765 C 386.445 288.407,326.935 356.710,245.557 325.144 L 241.231 323.466 230.796 331.851 C 218.353 341.849,218.468 341.433,227.121 345.154 C 259.687 359.158,304.396 358.728,331.294 344.153 C 362.788 327.088,377.109 305.737,378.111 274.353 C 380.237 207.818,315.294 144.944,233.270 134.127 C 231.018 133.830,227.694 133.402,225.882 133.176 C 224.071 132.950,216.497 132.473,209.053 132.116 L 195.517 131.467 191.495 127.446 C 183.655 119.606,172.355 116.668,163.129 120.072 M61.176 179.030 C 17.310 215.231,3.263 264.915,24.370 309.215 C 38.538 338.950,67.578 354.214,110.118 354.283 C 172.439 354.384,231.003 319.413,262.809 263.103 C 267.149 255.419,268.100 254.324,271.311 253.322 C 291.166 247.126,297.398 223.831,283.107 209.231 C 260.567 186.205,223.866 215.789,241.951 242.406 L 244.545 246.223 240.591 252.758 C 202.898 315.069,122.268 348.119,69.847 322.746 C 42.293 309.409,29.964 273.224,42.029 241.098 C 46.220 229.939,57.130 214.747,68.623 204.067 L 76.037 197.176 73.078 185.195 C 69.629 171.238,70.237 171.553,61.176 179.030 M207.255 390.392 L 207.529 408.078 203.294 405.686 C 193.714 400.276,180.320 403.071,171.001 412.424 C 155.822 427.659,158.122 463.815,174.949 474.486 C 182.723 479.416,197.447 478.190,205.655 471.930 L 208.957 469.412 209.989 472.373 C 211.418 476.472,213.257 477.176,222.526 477.176 L 230.588 477.176 230.588 424.941 L 230.588 372.706 218.784 372.706 L 206.980 372.706 207.255 390.392 M13.176 426.381 L 13.176 477.233 25.176 476.969 L 37.176 476.706 37.432 458.588 L 37.688 440.471 41.857 440.471 C 46.641 440.471,48.387 442.692,60.255 463.886 C 64.297 471.103,67.009 474.887,68.805 475.816 C 71.763 477.346,96.000 477.820,96.000 476.348 C 96.000 475.533,89.581 464.949,78.049 446.753 C 74.826 441.667,71.164 436.834,69.911 436.013 L 67.633 434.521 70.487 433.321 C 86.536 426.573,92.187 399.010,80.016 386.840 C 71.488 378.311,60.043 375.610,32.235 375.562 L 13.176 375.529 13.176 426.381 M56.757 397.062 C 60.958 399.659,62.460 403.384,61.922 409.873 C 61.240 418.105,56.921 421.235,44.837 422.257 L 37.744 422.856 37.460 408.486 L 37.176 394.116 45.338 394.583 C 51.446 394.932,54.319 395.556,56.757 397.062 M118.259 403.779 C 89.639 408.781,79.095 447.184,100.473 468.562 C 112.089 480.179,138.958 480.865,152.661 469.896 C 158.083 465.555,158.128 464.927,153.417 459.301 C 148.586 453.530,147.188 453.253,140.034 456.650 C 126.161 463.238,116.181 459.847,112.495 447.294 L 111.873 445.176 134.021 445.176 C 160.165 445.176,158.678 445.906,157.865 433.480 C 156.537 413.216,139.097 400.137,118.259 403.779 M309.645 405.524 C 309.646 406.232,312.080 410.256,315.055 414.465 C 318.029 418.674,323.061 426.058,326.238 430.874 L 332.014 439.630 320.360 457.202 C 306.056 478.769,306.131 477.176,319.425 477.176 C 332.430 477.176,331.795 477.605,340.016 463.281 C 344.457 455.542,346.350 453.000,347.028 453.869 C 347.538 454.523,350.400 459.412,353.386 464.733 C 360.437 477.291,360.248 477.176,373.856 477.176 C 388.288 477.176,388.598 478.802,368.263 447.794 L 362.264 438.648 368.138 429.912 C 371.368 425.107,376.471 417.819,379.476 413.716 C 386.738 403.802,386.987 404.179,373.413 404.553 C 359.858 404.927,361.069 404.177,354.065 416.532 L 348.521 426.310 341.554 415.743 L 334.588 405.176 322.116 404.706 C 311.958 404.323,309.644 404.474,309.645 405.524 M239.059 428.979 C 239.059 461.137,240.757 467.381,251.457 474.567 C 257.785 478.817,272.282 478.490,279.860 473.927 L 285.257 470.677 286.113 472.928 C 287.393 476.297,289.915 477.176,298.291 477.176 L 305.882 477.176 305.882 440.941 L 305.882 404.706 294.588 404.706 L 283.294 404.706 283.294 430.048 L 283.294 455.391 278.126 457.919 C 274.167 459.857,272.192 460.304,269.683 459.833 C 263.675 458.707,263.529 457.997,263.529 429.908 L 263.529 404.706 251.294 404.706 L 239.059 404.706 239.059 428.979 M133.155 421.882 C 134.495 423.047,135.811 425.241,136.080 426.758 C 136.349 428.274,136.783 429.862,137.046 430.287 C 137.308 430.711,131.755 431.059,124.706 431.059 C 117.657 431.059,112.069 430.741,112.290 430.353 C 112.511 429.965,113.439 428.043,114.352 426.083 C 117.340 419.669,127.895 417.311,133.155 421.882 M204.964 422.202 C 207.067 423.578,207.100 423.875,206.846 439.294 L 206.588 454.986 203.390 457.140 C 192.153 464.708,183.683 456.292,184.694 438.562 C 185.596 422.739,194.636 415.443,204.964 422.202 " stroke="none" fill="#774ABC" fill-rule="evenodd"></path></g></svg>