<svg xmlns="http://www.w3.org/2000/svg" viewBox="0 0 128 128"><path fill="#007acc" d="M 1.5 63.91 v 62.5 h 125 V 1.41 H 1.5 Z M 72.89 64.15 l 0 5.12 H 56.66 V 115.5 H 45.15 V 69.26 H 28.88 v -5 A 49.19 49.19 0 0 1 29 59.09 C 29.08 59 39 59 51 59 L 72.83 59 Z M 102.23 58.91 A 15.56 15.56 0 0 1 110.05 63.41 A 20.58 20.58 0 0 1 113.05 67.41 C 113.05 67.57 107.65 71.22 104.36 73.26 C 104.24 73.34 103.76 72.82 103.23 72.03 A 7.09 7.09 0 0 0 97.36 68.5 C 93.57 68.24 91.13 70.23 91.15 73.5 A 4.58 4.58 0 0 0 91.69 75.84 C 92.52 77.57 94.07 78.6 98.93 80.7 C 107.88 84.55 111.71 87.09 114.09 90.7 C 116.75 94.7 117.34 101.16 115.54 105.94 C 113.54 111.14 108.64 114.67 101.71 115.84 A 38.32 38.32 0 0 1 92.19 115.74 A 23 23 0 0 1 79.47 109.11 C 78.32 107.84 76.08 104.53 76.22 104.29 A 9.34 9.34 0 0 1 77.37 103.56 L 82 101 L 85.59 98.92 L 86.34 100.03 A 16.78 16.78 0 0 0 91.08 104.57 C 95.08 106.67 100.54 106.38 103.24 103.95 A 5.43 5.43 0 0 0 103.93 97.03 C 102.93 95.64 100.93 94.47 95.34 92.03 C 88.89 89.25 86.11 87.53 83.57 84.79 A 16.48 16.48 0 0 1 80.14 78.54 A 25 25 0 0 1 79.92 70.54 C 81.25 64.31 85.92 59.96 92.74 58.67 A 31.66 31.66 0 0 1 102.23 58.93 Z"></path></svg>